<svg xmlns="http://www.w3.org/2000/svg" viewBox="0 0 192 192" width="100%" height="100%">
  <defs>
    <linearGradient id="bgMask192" x1="0%" y1="0%" x2="100%" y2="100%">
      <stop offset="0%" stop-color="#180507" />
      <stop offset="50%" stop-color="#0F0F0F" />
      <stop offset="100%" stop-color="#050505" />
    </linearGradient>
    <linearGradient id="redMask192" x1="0%" y1="0%" x2="100%" y2="100%">
      <stop offset="0%" stop-color="#FF2E3B" />
      <stop offset="50%" stop-color="#E50914" />
      <stop offset="100%" stop-color="#8B0006" />
    </linearGradient>
  </defs>

  <rect width="192" height="192" fill="url(#bgMask192)"/>
  <g transform="translate(19.2, 19.2) scale(0.8)">
    <path d="M 124 54 C 82 50 54 71 54 96 C 54 121 82 142 124 138 C 131 137 134 131 131 125 C 129 121 123 118 117 119 C 88 122 73 110 73 96 C 73 83 88 70 117 73 C 123 74 129 72 131 67 C 134 62 131 55 124 54 Z" fill="url(#redMask192)"/>
    <path d="M 88 75 L 122 96 L 88 117 Z" fill="#FFFFFF"/>
  </g>
</svg>
